<?xml version="1.0" encoding="UTF-8" standalone="no"?>
<svg xmlns="http://www.w3.org/2000/svg" viewBox="0 0 1024 1024" class="icon cameo color-fast tappable" aria-label="mascot">
  <g class="mascot-symbol" fill="none" fill-rule="evenodd">
    <path class="field" fill="#631A35" d="M0 0h1024v1024H0z"></path>
    <g class="libby" transform="translate(176 140)">
      <path class="bob" fill="#A61C49" d="M102.774084 639.955556C39.5954783 589.033715.35555556 512.592257.35555556 412.903215c0-195.085066 150.27313644-336.1476594 336.14765944-336.1476594 184.868093 0 335.141229 141.0508744 335.141229 336.1476594 0 99.692227-39.237715 176.132058-102.278916 227.052341H102.774084z"></path>
      <circle class="face" cx="336" cy="410.4" r="301.511111" fill="#FFEEAA"></circle>
      <path class="ribbon" fill="#29CFC3" d="M576.577778.8s-55.699561 27.2560909-67.854824 27.2560909C496.567691 28.0560909 440.044444.8 440.044444.8v71.3863555c51.510478 15.0494556 98.043397 42.9743705 136.533334 77.9469775V.8z"></path>
      <path class="right-hair" fill="#A61C49" d="M496.541742 355.218377c39.715368-49.471221 70.43069-106.476743 89.661807-168.532407 53.113158 59.452395 85.440895 138.005419 85.440895 224.217245 0 34.454905-5.219868 67.708125-14.910713 99.010767L496.541742 355.218377z"></path>
      <path class="left-hair" fill="#A61C49" d="M22.8771373 531.741118C8.33001652 494.240385.35555556 453.489716.35555556 410.903215c0-185.874523 150.27313644-336.1476594 336.14765944-336.1476594 93.250019 0 177.697928 38.2344884 238.497631 99.9865304-64.492686 208.969225-259.16976 360.81347-489.3119571 360.81347-21.2649447 0-42.2271022-1.296386-62.8117516-3.814438z"></path>
      <path class="smile" fill="#631A35" d="M337.555882 636.444444c31.792688 0 65.508184-24.578903 57.307307-41.750517-4.353455-8.853154-28.279872 11.259499-57.307307 11.597366-27.640268-.213934-51.318608-18.607195-56.16116-11.597366-11.942657 16.785547 25.357338 41.750517 56.16116 41.750517z"></path>
      <path class="eye-open" fill="#631A35" d="M425.65447 480.857942c-.805048-3.242227-1.232248-6.633347-1.232248-10.124089 0-23.159427 18.804041-41.933853 42-41.933853 23.19596 0 42 18.774426 42 41.933853 0 16.005671-8.981384 29.916931-22.186793 36.983912-4.536068-18.268423-21.06804-31.809765-40.767752-31.809765-7.165041 0-13.911031 1.791345-19.813207 4.949942z"></path>
      <path class="eye-closed" fill="#631A35" d="M479.218455 507.8c-28.996325 0-61.544543-37.51438-57.892334-42.895687 3.65221-5.381307 35.455302 9.434772 56.044344 9.434772 22.350507 0 56.795615-14.754951 60.397283-9.600435 3.601668 5.154516-28.611334 43.06135-58.549293 43.06135z"></path>
    </g>
    <g class="book" transform="translate(93 741)">
      <path class="pages-outline" fill="#631A35" d="M38 84.9926853c0-55.2249021 44.2136639-92.8910575 98.630414-83.50691691 0 0 194.385572 27.98979521 260.369586 65.51338631 10.794501.0792849 32.675832.0792849 44 0C507.613054 29.1825713 695.424934 1.78189528 695.424934 1.78189528 749.86644-7.48695642 794 29.7782087 794 84.9926853V568H38V84.9926853z"></path>
      <path class="pages" fill="#FFFFFF" d="M38 70.3221573c0-34.419577 27.5598944-57.9623071 61.5137031-52.3210493 0 0 231.5022829 34.4097411 297.4862969 71.998892 10.794501-.0499917 32.675832-.0499917 44 0 66.613054-37.8816467 291.529368-71.8271166 291.529368-71.8271166C766.478661 12.5545551 794 35.9021463 794 70.3221573V568H38V70.3221573z"></path>
      <path class="back-cover" fill="#29CFC3" d="M419 568V114L52 47C23.0931158 41.5448528.50042955 61.4594029 1 91L0 568h419z"></path>
      <path class="front-cover" fill="#23B0A7" d="M419 568V113l367-67c29.291609-5.4519386 53 14.448269 53 44v478H419z"></path>
      <path class="spine" fill="#26BFB5" d="M473 568V104H364v464z"></path>
    </g>
    <g class="mortarboard" transform="translate(93 151)" style="display: none">
      <path class="cap" fill="#631A35" d="M416.858021 338.903543l-.000165.109935-.150396-.055281-.152288.055281.00031-.111144C202.88596 260.36502 195.757256 260.846282 98.7897782 260.846282l29.5175938-154.434944h581.429155l29.888885 154.434944c-98.187698 0-106.406014-.481267-322.767391 78.057261z"></path>
      <path class="cap-board" fill="#A61C49" d="M422.163693-1.42020295L843.451928 110.605106 422.163447 213.120212-5.89578447 110.605168 422.163693-1.42020295z"></path>
      <path class="cap-ribbon" fill="#29CFC3" d="M218.599265 277.184664c18.739202 4.457615 32.677299 21.318175 32.677299 41.452927v98.759801l-42.555492-17.053762-42.555491 17.053762v-98.759801c0-20.230499 14.118503-37.167786 32.984337-41.520814-8.567337-2.690294-14.783148-10.70706-14.783148-20.178448v-7.047494c0-9.929233 6.831278-18.259813 16.041626-20.530816l-.738613-75.069023 203.309038-61.3614972c1.912208-4.984801 9.030042-8.6870488 17.518402-8.6870488 9.954106 0 18.023502 5.0912258 18.023502 11.371571 0 6.280345-8.069396 11.371571-18.023502 11.371571-2.255885 0-4.41497-.261488-6.405268-.739044l-198.373537 59.871895.619652 62.97849c9.82218 1.807635 17.264778 10.429911 17.264778 20.793902v7.047494c0 9.552431-6.322638 17.62524-15.003583 20.246335z"></path>
    </g>
  </g>
</svg>
